# AST/ASF file generated using VICON BodyLanguage
# -----------------------------------------------
:version 1.10
:name VICON
:units
  mass 1.0
  length 0.45
  angle deg
:documentation
   .ast/.asf automatically generated from VICON data using
   VICON BodyBuilder and BodyLanguage model FoxedUp or BRILLIANT.MOD
:root
   order TX TY TZ RX RY RZ
   axis XYZ
   position 0 0 0  
   orientation 0 0 0 
:bonedata
  begin
     id 1 
     name lhipjoint
     direction 0.612567 -0.751349 0.245431 
     length 2.42285 
     axis 0 0 0  XYZ
  end
  begin
     id 2 
     name lfemur
     direction 0.34202 -0.939693 0  
     length 7.11304  
     axis 0 0 20  XYZ
    dof rx ry rz
    limits (-160.0 20.0)
           (-70.0 70.0)
           (-60.0 70.0)
  end
  begin
     id 3 
     name ltibia
     direction 0.34202 -0.939693 0   
     length 7.84529   
     axis 0 0 20   XYZ
    dof rx
    limits (-10.0 170.0)
  end
  begin
     id 4 
     name lfoot
     direction 0.0779239 -0.214094 0.9737   
     length 1.97176   
     axis -90 7.62852e-016 20   XYZ
    dof rx rz
    limits (-45.0 90.0)
           (-70.0 20.0)
  end
  begin
     id 5 
     name ltoes
     direction 1.53565e-011 -4.21709e-011 1   
     length 0.993197   
     axis -90 7.62852e-016 20   XYZ
    dof rx
    limits (-90.0 20.0)
  end
  begin
     id 6 
     name rhipjoint
     direction -0.665722 -0.709315 0.231701   
     length 2.56642  
     axis 0 0 0  XYZ 
  end
  begin
     id 7 
     name rfemur
     direction -0.34202 -0.939693 0   
     length 7.32108   
     axis 0 0 -20   XYZ
    dof rx ry rz
    limits (-160.0 20.0)
           (-70.0 70.0)
           (-70.0 60.0)
  end
  begin
     id 8 
     name rtibia
     direction -0.34202 -0.939693 0   
     length 7.81254   
     axis 0 0 -20   XYZ
    dof rx
    limits (-10.0 170.0)
 end
 begin
     id 9 
     name rfoot
     direction -0.0832806 -0.228812 0.969902   
     length 2.08278  
     axis -90 -7.62852e-016 -20   XYZ
    dof rx rz
    limits (-45.0 90.0)
           (-20.0 70.0)
  end
  begin
     id 10 
     name rtoes
     direction -1.53589e-011 -4.22086e-011 1   
     length 1.04609   
     axis -90 -7.62852e-016 -20   XYZ
    dof rx
    limits (-90.0 20.0)
  end
  begin
     id 11 
     name lowerback
     direction -0.00506013 0.988403 -0.151766   
     length 2.01978   
     axis 0 0 0   XYZ
    dof rx ry rz
    limits (-20.0 45.0)
           (-30.0 30.0)
           (-30.0 30.0)
  end
  begin
     id 12 
     name upperback
     direction -0.00836389 0.99968 0.0238859   
     length 2.01276   
     axis 0 0 0   XYZ
    dof rx ry rz
    limits (-20.0 45.0)
           (-30.0 30.0)
           (-30.0 30.0)
  end
  begin
     id 13 
     name thorax
     direction -0.00684136 0.995386 0.0957043   
     length 2.07303   
     axis 0 0 0   XYZ
    dof rx ry rz
    limits (-20.0 45.0)
           (-30.0 30.0)
           (-30.0 30.0)
  end
  begin
     id 14 
     name lowerneck
     direction -0.0161045 0.999661 0.0204485   
     length 1.91243   
     axis 0 0 0   XYZ
    dof rx ry rz
    limits (-20.0 45.0)
           (-30.0 30.0)
           (-30.0 30.0)
  end
  begin
     id 15 
     name upperneck
     direction 0.0553583 0.990946 -0.122319   
     length 1.91574   
     axis 0 0 0   XYZ
    dof rx ry rz
    limits (-20.0 45.0)
           (-30.0 30.0)
           (-30.0 30.0)
  end
  begin
     id 16
     name head
     direction 0.0180273 0.998839 -0.0446756  
     length 1.92693  
     axis 0 0 0   XYZ
    dof rx ry rz
    limits (-20.0 45.0)
           (-30.0 30.0)
           (-30.0 30.0)
  end
  begin
     id 17 
     name lclavicle
     direction 0.945646 0.319323 -0.0615358  
     length 4.0076  
     axis 0 0 0   XYZ
    dof ry rz
    limits (-20.0 10.0)
           (0.0 20.0)
  end
  begin
     id 18 
     name lhumerus
     direction 1 -4.48967e-011 -2.79996e-027   
     length 5.64147   
     axis 180 -30 -90   XYZ
    dof rx ry rz
    limits (-60.0 90.0)
           (-90.0 90.0)
           (-90.0 90.0)
  end
  begin
     id 19
     name lradius
     direction 1 -4.48976e-011 -9.5122e-027   
     length 2.86444   
     axis 180 -30 -90   XYZ
    dof rx
    limits (-10.0 170.0)
  end
  begin
     id 20
     name lwrist
     direction 1 -4.48983e-011 -1.24047e-026   
     length 1.43222   
     axis 9.05591e-015 90 90   XYZ
    dof ry
    limits (-180.0 0.0)
 end
  begin
     id 21 
     name lhand
     direction 1 -4.4892e-011 -2.48094e-026   
     length 0.722123   
     axis 1.58305e-014 90 90   XYZ
    dof rx rz
    limits (-90.0 90.0)
           (-45.0 45.0)
  end
  begin
     id 22 
     name lfingers
     direction 1 -4.48895e-011 -4.96187e-026   
     length 0.582194   
     axis 3.1661e-014 90 90   XYZ
    dof rx
    limits (0.0 90.0)
  end
  begin
     id 23
     name lthumb
     direction 0.707107 -6.34961e-011 0.707107   
     length 0.835918   
     axis -90 45 2.85299e-015   XYZ
    dof rx rz
    limits (-45.0 45.0)
           (-45.0 45.0)
  end
  begin
     id 24 
     name rclavicle
     direction -0.932635 0.324218 -0.15835   
     length 3.65819  
     axis 0 0 0   XYZ 
    dof ry rz
    limits (-10.0 20.0)
           (-20.0 0.0)
  end
  begin
     id 25 
     name rhumerus
     direction -1 -4.48965e-011 -4.02296e-027  
     length 5.44729   
     axis 180 30 90   XYZ
    dof rx ry rz
    limits (-90.0 60.0)
           (-90.0 90.0)
           (-90.0 90.0)
  end
  begin
     id 26 
     name rradius
     direction -1 -4.48957e-011 -8.81087e-027   
     length 3.08821   
     axis 180 30 90   XYZ
    dof rx
    limits (-10.0 170.0)
  end
  begin
     id 27 
     name rwrist
     direction -1 -4.49015e-011 -1.24047e-026   
     length 1.5441   
     axis 9.05591e-015 -90 -90   XYZ
    dof ry
    limits (-180.0 0.0)
  end
  begin
     id 28
     name rhand
     direction -1 -4.4891e-011 -2.48094e-026   
     length 0.821049   
     axis 1.58305e-014 -90 -90   XYZ
    dof rx rz
    limits (-90.0 90.0)
           (-45.0 45.0)
  end
  begin
     id 29
     name rfingers
     direction -1 -4.48985e-011 -4.96187e-026   
     length 0.661951   
     axis 3.1661e-014 -90 -90   XYZ
    dof rx
    limits (0.0 90.0)
  end
  begin
     id 30
     name rthumb
     direction -0.707107 -6.34906e-011 0.707107   
     length 0.950433   
     axis -90 -45 -2.85299e-015   XYZ
    dof rx rz
    limits (-45.0 45.0)
           (-45.0 45.0)
  end
:hierarchy
  begin
    root lhipjoint rhipjoint lowerback
    lhipjoint lfemur
    lfemur ltibia
    ltibia lfoot
    lfoot ltoes
    rhipjoint rfemur
    rfemur rtibia
    rtibia rfoot
    rfoot rtoes
    lowerback upperback
    upperback thorax
    thorax lowerneck lclavicle rclavicle
    lowerneck upperneck
    upperneck head
    lclavicle lhumerus
    lhumerus lradius
    lradius lwrist
    lwrist lhand lthumb
    lhand lfingers
    rclavicle rhumerus
    rhumerus rradius
    rradius rwrist
    rwrist rhand rthumb
    rhand rfingers
  end

#!OML:ASF F:\VICON\USERDATA\INSTALL\rory3\rory3.ASF
:FULLY-SPECIFIED
:DEGREES
1077
root 3.32331 17.6877 0.189232 200.895 88.8012 203.631
lowerback 5.91324 1.02523 2.14333
upperback -0.435908 1.46785 -1.60597
thorax -3.67178 0.67546 -2.99682
lowerneck -4.73541 -5.87428 -5.37172
upperneck 8.76251 -8.23738 9.07809
head 3.98933 -3.79806 3.21544
rclavicle 1.1455e-014 1.59028e-014
rhumerus 14.548 10.2454 -71.5484
rradius 57.8439
rwrist 15.4172
rhand -4.16012 0.154636
rfingers 7.12502
rthumb 21.6002 -28.6607
lclavicle 1.1455e-014 1.59028e-014
lhumerus -34.7188 -4.48553 86.0875
lradius 24.2564
lwrist 36.4612
lhand -15.5931 5.92036
lfingers 7.12502
lthumb 10.5927 35.6334
rfemur 3.48335 0.434567 19.4418
rtibia 14.5415
rfoot -18.783 -8.12321
rtoes -7.36176
lfemur 3.0582 0.518974 -15.7786
ltibia 9.55923
lfoot -9.84156 -1.43369
ltoes -4.80386
1078
root 3.32432 17.6833 0.191649 198.954 88.6985 201.707
lowerback 5.86493 1.05732 2.07784
upperback -0.398595 1.50607 -1.58861
thorax -3.60542 0.697515 -2.94317
lowerneck -4.75523 -5.91677 -5.37399
upperneck 8.71585 -8.28812 9.03871
head 3.98082 -3.82594 3.20023
rclavicle 6.80216e-015 7.95139e-015
rhumerus 14.5499 10.116 -71.5382
rradius 57.701
rwrist 15.4399
rhand -3.9609 0.220104
rfingers 7.12502
rthumb 21.7915 -28.5731
lclavicle 6.80216e-015 7.95139e-015
lhumerus -34.6856 -4.37213 86.0685
lradius 24.2411
lwrist 36.262
lhand -15.5948 6.02718
lfingers 7.12502
lthumb 10.591 35.7403
rfemur 3.55877 0.278431 19.4678
rtibia 14.4752
rfoot -18.6857 -8.31203
rtoes -9.24278
lfemur 2.96847 0.41122 -15.7668
ltibia 9.71899
lfoot -9.88403 -1.45694
ltoes -4.53229
1079
root 3.32529 17.6803 0.193174 195.792 88.6005 198.562
lowerback 5.83981 1.07785 2.01708
upperback -0.383601 1.52881 -1.59628
thorax -3.57558 0.710687 -2.91786
lowerneck -4.71773 -5.95301 -5.39015
upperneck 8.65183 -8.33133 9.01772
head 3.95822 -3.85143 3.19523
rclavicle 8.84592e-015 -5.56597e-015
rhumerus 14.5326 9.97815 -71.5671
rradius 57.4912
rwrist 15.4597
rhand -3.79052 0.35481
rfingers 7.12502
rthumb 21.9551 -28.4193
lclavicle 8.84592e-015 -5.56597e-015
lhumerus -34.6735 -4.37147 86.0781
lradius 24.2489
lwrist 36.1705
lhand -15.6087 6.40912
lfingers 7.12502
lthumb 10.5776 36.1229
rfemur 3.622 0.137073 19.4486
rtibia 14.4441
rfoot -18.636 -8.4634
rtoes -10.9715
lfemur 2.90451 0.298891 -15.7974
ltibia 9.8317
lfoot -9.97549 -1.47169
ltoes -4.71554
1080
root 3.32632 17.6803 0.194573 193.372 88.5253 196.152
lowerback 5.80706 1.116 1.98092
upperback -0.358575 1.57635 -1.61904
thorax -3.52847 0.736042 -2.92373
lowerneck -4.69175 -6.0026 -5.38679
upperneck 8.54484 -8.39249 9.01076
head 3.92575 -3.88514 3.19029
rclavicle 9.27455e-015 -3.97569e-016
rhumerus 14.5644 9.81751 -71.6024
rradius 57.2204
rwrist 15.5086
rhand -3.77484 0.389675
rfingers 7.12502
rthumb 21.9702 -28.3827
lclavicle 9.27455e-015 -3.97569e-016
lhumerus -34.6636 -4.6054 86.1546
lradius 24.2846
lwrist 36.3393
lhand -15.6456 6.55355
lfingers 7.12502
lthumb 10.542 36.2692
rfemur 3.66724 0.127856 19.4225
rtibia 14.4174
rfoot -18.6961 -8.50515
rtoes -10.6685
lfemur 2.84967 0.21465 -15.8253
ltibia 9.93286
lfoot -10.023 -1.52468
ltoes -4.60934
1081
root 3.32762 17.6795 0.195875 192.556 88.457 195.301
lowerback 5.74775 1.17611 1.9653
upperback -0.357082 1.65434 -1.63083
thorax -3.48862 0.775753 -2.93194
lowerneck -4.686 -6.05702 -5.33842
upperneck 8.46802 -8.4604 8.9545
head 3.90226 -3.9218 3.16186
rclavicle 9.59757e-015 -7.95139e-016
rhumerus 14.5663 9.6426 -71.5631
rradius 57.0151
rwrist 15.5753
rhand -3.81788 0.379261
rfingers 7.12502
rthumb 21.9288 -28.3979
lclavicle 9.59757e-015 -7.95139e-016
lhumerus -34.6767 -4.9206 86.2803
lradius 24.282
lwrist 36.5468
lhand -15.7936 6.43605
lfingers 7.12502
lthumb 10.3993 36.1589
rfemur 3.65349 0.0664287 19.4261
rtibia 14.3916
rfoot -18.7123 -8.58516
rtoes -10.6689
lfemur 2.7696 0.150252 -15.8237
ltibia 9.9993
lfoot -10.0769 -1.5281
ltoes -4.67411
1082
root 3.32814 17.6807 0.197506 192.094 88.3964 194.794
lowerback 5.70659 1.23141 1.95048
upperback -0.386603 1.72624 -1.63326
thorax -3.49176 0.811354 -2.93143
lowerneck -4.64216 -6.10686 -5.30261
upperneck 8.44632 -8.52347 8.87717
head 3.88818 -3.95707 3.13006
rclavicle 1.59525e-014 -3.97569e-015
rhumerus 14.5371 9.58451 -71.5221
rradius 56.7931
rwrist 15.422
rhand -4.06536 0.226123
rfingers 7.12502
rthumb 21.6912 -28.5787
lclavicle 1.59525e-014 -3.97569e-015
lhumerus -34.7067 -5.01403 86.3154
lradius 24.2132
lwrist 36.4874
lhand -15.7945 6.28761
lfingers 7.12502
lthumb 10.3984 36.0105
rfemur 3.62399 0.0368379 19.4431
rtibia 14.365
rfoot -18.7422 -8.66633
rtoes -10.1341
lfemur 2.68802 0.0956101 -15.8106
ltibia 10.035
lfoot -10.0909 -1.53985
ltoes -4.58872
1083
root 3.32726 17.6816 0.199199 193.956 88.322 196.64
lowerback 5.71249 1.26497 2.0103
upperback -0.423116 1.77528 -1.61692
thorax -3.52849 0.833587 -2.95316
lowerneck -4.60032 -6.14426 -5.30841
upperneck 8.46929 -8.57276 8.8403
head 3.89035 -3.98376 3.11767
rclavicle -5.03174e-016 3.97569e-015
rhumerus 14.5246 9.54886 -71.5416
rradius 56.5413
rwrist 15.3026
rhand -4.3879 0.0575595
rfingers 7.12502
rthumb 21.3814 -28.7827
lclavicle -5.03174e-016 3.97569e-015
lhumerus -34.778 -4.99563 86.2798
lradius 24.1782
lwrist 36.3846
lhand -15.7798 6.29706
lfingers 7.12502
lthumb 10.4126 36.0192
rfemur 3.63699 0.0532106 19.5476
rtibia 14.3065
rfoot -18.7571 -8.82137
rtoes -10.003
lfemur 2.59589 0.104547 -15.7152
ltibia 10.1319
lfoot -10.0744 -1.67018
ltoes -4.23832
1084
root 3.32722 17.6817 0.200911 194.375 88.2366 197.068
lowerback 5.68241 1.27861 2.02901
upperback -0.412471 1.79451 -1.61157
thorax -3.4989 0.843453 -2.95857
lowerneck -4.60833 -6.18151 -5.34923
upperneck 8.48954 -8.62248 8.85424
head 3.9038 -4.00829 3.12478
rclavicle -2.28851e-014 1.51076e-014
rhumerus 14.6129 9.3177 -71.6658
rradius 56.304
rwrist 15.7011
rhand -4.24402 0.0815185
rfingers 7.12502
rthumb 21.5196 -28.743
lclavicle -2.28851e-014 1.51076e-014
lhumerus -34.8248 -5.01534 86.2502
lradius 24.2663
lwrist 36.433
lhand -15.794 6.49895
lfingers 7.12502
lthumb 10.3989 36.2218
rfemur 3.68635 0.0436603 19.6092
rtibia 14.243
rfoot -18.7491 -8.97661
rtoes -10.5175
lfemur 2.51812 0.16009 -15.6557
ltibia 10.2407
lfoot -10.0512 -1.81586
ltoes -4.19506
1085
root 3.32587 17.6813 0.201962 196.728 88.1438 199.405
lowerback 5.65139 1.28284 2.10182
upperback -0.406614 1.80581 -1.56287
thorax -3.47399 0.848401 -2.94889
lowerneck -4.65297 -6.2014 -5.51068
upperneck 8.49187 -8.64328 8.92526
head 3.92351 -4.01967 3.16934
rclavicle -7.54761e-015 1.07344e-014
rhumerus 14.81 9.12301 -71.7153
rradius 56.0672
rwrist 16.1099
rhand -3.9469 0.213225
rfingers 7.12502
rthumb 21.805 -28.5784
lclavicle -7.54761e-015 1.07344e-014
lhumerus -34.8209 -4.91013 86.2008
lradius 24.2935
lwrist 36.3002
lhand -15.6084 6.7451
lfingers 7.12502
lthumb 10.5779 36.4589
rfemur 3.68919 0.0809784 19.736
rtibia 14.2161
rfoot -18.8217 -9.03636
rtoes -10.31
lfemur 2.44247 0.0951851 -15.5419
ltibia 10.303
lfoot -10.062 -1.80478
ltoes -4.43761
1086
root 3.32365 17.6812 0.202429 197.068 88.0764 199.693
lowerback 5.63704 1.30265 2.12479
upperback -0.429513 1.83389 -1.54411
thorax -3.48769 0.861476 -2.94469
lowerneck -4.72745 -6.23008 -5.58341
upperneck 8.54196 -8.67864 8.93377
head 3.95723 -4.03628 3.17838
rclavicle 2.26987e-014 -7.95139e-016
rhumerus 15.0111 9.04276 -71.7098
rradius 55.8505
rwrist 16.1621
rhand -4.00862 0.266157
rfingers 7.12502
rthumb 21.7457 -28.5324
lclavicle 2.26987e-014 -7.95139e-016
lhumerus -34.7819 -4.8201 86.144
lradius 24.1698
lwrist 36.097
lhand -15.4291 7.01002
lfingers 7.12502
lthumb 10.7508 36.7149
rfemur 3.643 0.121786 19.7902
rtibia 14.2114
rfoot -18.8743 -9.10785
rtoes -9.95703
lfemur 2.33943 0.0893717 -15.4934
ltibia 10.3433
lfoot -10.0038 -1.91269
ltoes -4.09187
